<svg xmlns="http://www.w3.org/2000/svg" width="12" height="20" viewBox="0 0 12 20" fill="none">
  <path d="M0.41864 19.5814C0.150585 19.3132 0 18.9496 0 18.5705C0 18.1913 0.150585 17.8277 0.41864 17.5596L7.98683 9.99137L0.41864 2.42318C0.158182 2.15351 0.0140614 1.79233 0.0173192 1.41742C0.020577 1.04252 0.170952 0.683899 0.436058 0.418793C0.701163 0.153688 1.05979 0.00331185 1.43469 5.40518e-05C1.80959 -0.00320374 2.17077 0.140918 2.44045 0.401376L11.0195 8.98047C11.2876 9.2486 11.4382 9.61222 11.4382 9.99137C11.4382 10.3705 11.2876 10.7341 11.0195 11.0023L2.44045 19.5814C2.17231 19.8494 1.80869 20 1.42954 20C1.0504 20 0.686777 19.8494 0.41864 19.5814Z" fill="#5A20C3"/>
</svg>