<svg xmlns="http://www.w3.org/2000/svg" width="12" height="20" viewBox="0 0 12 20" fill="none">
  <path d="M11.0195 0.41864C11.2876 0.686777 11.4382 1.0504 11.4382 1.42954C11.4382 1.80869 11.2876 2.17231 11.0195 2.44045L3.45135 10.0086L11.0195 17.5768C11.28 17.8465 11.4241 18.2077 11.4209 18.5826C11.4176 18.9575 11.2672 19.3161 11.0021 19.5812C10.737 19.8463 10.3784 19.9967 10.0035 19.9999C9.62858 20.0032 9.2674 19.8591 8.99773 19.5986L0.41864 11.0195C0.150585 10.7514 0 10.3878 0 10.0086C0 9.62949 0.150585 9.26587 0.41864 8.99773L8.99773 0.41864C9.26587 0.150585 9.62949 0 10.0086 0C10.3878 0 10.7514 0.150585 11.0195 0.41864Z" fill="#5A20C3"/>
</svg>