<svg width="29" height="30" viewBox="0 0 29 30" fill="none" xmlns="http://www.w3.org/2000/svg">
    <path d="M9.375 11.25H13.125V15H9.375V11.25ZM15 11.25H18.75V15H15V11.25ZM20.625 11.25H24.375V15H20.625V11.25ZM3.75 22.5H7.5V26.25H3.75V22.5ZM9.375 22.5H13.125V26.25H9.375V22.5ZM15 22.5H18.75V26.25H15V22.5ZM9.375 16.875H13.125V20.625H9.375V16.875ZM15 16.875H18.75V20.625H15V16.875ZM20.625 16.875H24.375V20.625H20.625V16.875ZM3.75 16.875H7.5V20.625H3.75V16.875ZM24.375 0H20.625H7.5H3.75C1.67893 0 0 1.67893 0 3.75V26C0 28.2091 1.79086 30 4 30H24.125C26.3341 30 28.125 28.2091 28.125 26V3.75C28.125 1.67893 26.4461 0 24.375 0ZM26.25 25.125C26.25 26.7819 24.9069 28.125 23.25 28.125H4.875C3.21815 28.125 1.875 26.7819 1.875 25.125V7.5H26.25V25.125Z" fill="#5A20C3"/>
</svg>
