<svg xmlns="http://www.w3.org/2000/svg" width="30" height="30" viewBox="0 0 30 30" fill="none">
  <path d="M13.3333 20H23.3333V23.3333H13.3333V20ZM10 6.66667H6.66667V10H10V6.66667ZM13.3333 16.6667H23.3333V13.3333H13.3333V16.6667ZM13.3333 10H23.3333V6.66667H13.3333V10ZM10 13.3333H6.66667V16.6667H10V13.3333ZM30 3.33333V26.6667C30 28.5 28.5 30 26.6667 30H3.33333C1.5 30 0 28.5 0 26.6667V3.33333C0 1.5 1.5 0 3.33333 0H26.6667C28.5 0 30 1.5 30 3.33333ZM27.5 2.5H15H2.5V15V27.5H15H27.5V15V2.5ZM10 20H6.66667V23.3333H10V20Z" fill="#5A20C3"/>
</svg>