<svg width="38" height="38" viewBox="0 0 38 38" fill="none" xmlns="http://www.w3.org/2000/svg">
<path d="M16.9167 29.1667H21.0833V20.8333H29.4167V16.6667H21.0833V8.33333H16.9167V16.6667H8.58333V20.8333H16.9167V29.1667ZM4.41667 37.5C3.27083 37.5 2.28993 37.092 1.47396 36.276C0.657986 35.4601 0.25 34.4792 0.25 33.3333V4.16667C0.25 3.02083 0.657986 2.03993 1.47396 1.22396C2.28993 0.407986 3.27083 0 4.41667 0H33.5833C34.7292 0 35.7101 0.407986 36.526 1.22396C37.342 2.03993 37.75 3.02083 37.75 4.16667V33.3333C37.75 34.4792 37.342 35.4601 36.526 36.276C35.7101 37.092 34.7292 37.5 33.5833 37.5H4.41667ZM4.41667 33.3333H33.5833V4.16667H4.41667V33.3333Z" fill="#D567E7"/>
</svg>
