<svg width="109" height="109" viewBox="0 0 109 109" fill="none" xmlns="http://www.w3.org/2000/svg">
<mask id="mask0_1_1004" style="mask-type:alpha" maskUnits="userSpaceOnUse" x="0" y="0" width="109" height="109">
<rect width="109" height="109" fill="#D9D9D9"/>
</mask>
<g mask="url(#mask0_1_1004)">
<path d="M31.7917 95.375V86.2917H49.9583V72.2125C46.2493 71.3799 42.9377 69.8092 40.0234 67.5005C37.1092 65.1918 34.9708 62.2965 33.6083 58.8146C27.9312 58.1333 23.1814 55.6543 19.3589 51.3776C15.5363 47.1009 13.625 42.0861 13.625 36.3333V31.7917C13.625 29.2937 14.5144 27.1554 16.2932 25.3766C18.072 23.5977 20.2104 22.7083 22.7083 22.7083H31.7917V13.625H77.2083V22.7083H86.2917C88.7896 22.7083 90.9279 23.5977 92.7068 25.3766C94.4856 27.1554 95.375 29.2937 95.375 31.7917V36.3333C95.375 42.0861 93.4637 47.1009 89.6412 51.3776C85.8186 55.6543 81.0687 58.1333 75.3917 58.8146C74.0292 62.2965 71.8908 65.1918 68.9766 67.5005C66.0623 69.8092 62.7507 71.3799 59.0417 72.2125V86.2917H77.2083V95.375H31.7917ZM31.7917 49.05V31.7917H22.7083V36.3333C22.7083 39.2097 23.541 41.8023 25.2062 44.1109C26.8715 46.4196 29.0667 48.066 31.7917 49.05ZM54.5 63.5833C58.2847 63.5833 61.5017 62.2587 64.151 59.6094C66.8003 56.9601 68.125 53.7431 68.125 49.9583V22.7083H40.875V49.9583C40.875 53.7431 42.1997 56.9601 44.849 59.6094C47.4983 62.2587 50.7153 63.5833 54.5 63.5833ZM77.2083 49.05C79.9333 48.066 82.1285 46.4196 83.7937 44.1109C85.459 41.8023 86.2917 39.2097 86.2917 36.3333V31.7917H77.2083V49.05Z" fill="#5A20C3"/>
</g>
</svg>
