<svg width="10" height="10" viewBox="0 0 10 10" fill="none" xmlns="http://www.w3.org/2000/svg">
<mask id="mask0_21_1446" style="mask-type:alpha" maskUnits="userSpaceOnUse" x="0" y="0" width="10" height="10">
<rect width="10" height="10" fill="#5A20C3"/>
</mask>
<g mask="url(#mask0_21_1446)">
<path d="M3.85417 9.16659L3.6875 7.83325C3.59722 7.79853 3.51215 7.75686 3.43229 7.70825C3.35243 7.65964 3.27431 7.60756 3.19792 7.552L1.95833 8.07284L0.8125 6.09367L1.88542 5.28117C1.87847 5.23256 1.875 5.18568 1.875 5.14054V4.85929C1.875 4.81416 1.87847 4.76728 1.88542 4.71867L0.8125 3.90617L1.95833 1.927L3.19792 2.44784C3.27431 2.39228 3.35417 2.3402 3.4375 2.29159C3.52083 2.24297 3.60417 2.20131 3.6875 2.16659L3.85417 0.833252H6.14583L6.3125 2.16659C6.40278 2.20131 6.48785 2.24297 6.56771 2.29159C6.64757 2.3402 6.72569 2.39228 6.80208 2.44784L8.04167 1.927L9.1875 3.90617L8.11458 4.71867C8.12153 4.76728 8.125 4.81416 8.125 4.85929V5.14054C8.125 5.18568 8.11806 5.23256 8.10417 5.28117L9.17708 6.09367L8.03125 8.07284L6.80208 7.552C6.72569 7.60756 6.64583 7.65964 6.5625 7.70825C6.47917 7.75686 6.39583 7.79853 6.3125 7.83325L6.14583 9.16659H3.85417ZM5.02083 6.45825C5.42361 6.45825 5.76736 6.31589 6.05208 6.03117C6.33681 5.74645 6.47917 5.4027 6.47917 4.99992C6.47917 4.59714 6.33681 4.25339 6.05208 3.96867C5.76736 3.68395 5.42361 3.54159 5.02083 3.54159C4.61111 3.54159 4.26562 3.68395 3.98438 3.96867C3.70312 4.25339 3.5625 4.59714 3.5625 4.99992C3.5625 5.4027 3.70312 5.74645 3.98438 6.03117C4.26562 6.31589 4.61111 6.45825 5.02083 6.45825ZM5.02083 5.62492C4.84722 5.62492 4.69965 5.56416 4.57812 5.44263C4.4566 5.3211 4.39583 5.17353 4.39583 4.99992C4.39583 4.82631 4.4566 4.67874 4.57812 4.55721C4.69965 4.43568 4.84722 4.37492 5.02083 4.37492C5.19444 4.37492 5.34201 4.43568 5.46354 4.55721C5.58507 4.67874 5.64583 4.82631 5.64583 4.99992C5.64583 5.17353 5.58507 5.3211 5.46354 5.44263C5.34201 5.56416 5.19444 5.62492 5.02083 5.62492ZM4.58333 8.33325H5.40625L5.55208 7.22909C5.76736 7.17353 5.96701 7.09193 6.15104 6.98429C6.33507 6.87666 6.50347 6.74645 6.65625 6.59367L7.6875 7.02075L8.09375 6.31242L7.19792 5.63534C7.23264 5.53811 7.25694 5.43568 7.27083 5.32804C7.28472 5.22041 7.29167 5.11103 7.29167 4.99992C7.29167 4.88881 7.28472 4.77943 7.27083 4.67179C7.25694 4.56416 7.23264 4.46172 7.19792 4.3645L8.09375 3.68742L7.6875 2.97909L6.65625 3.41659C6.50347 3.25686 6.33507 3.12318 6.15104 3.01554C5.96701 2.9079 5.76736 2.82631 5.55208 2.77075L5.41667 1.66659H4.59375L4.44792 2.77075C4.23264 2.82631 4.03299 2.9079 3.84896 3.01554C3.66493 3.12318 3.49653 3.25339 3.34375 3.40617L2.3125 2.97909L1.90625 3.68742L2.80208 4.35409C2.76736 4.45825 2.74306 4.56242 2.72917 4.66659C2.71528 4.77075 2.70833 4.88186 2.70833 4.99992C2.70833 5.11103 2.71528 5.21867 2.72917 5.32284C2.74306 5.427 2.76736 5.53117 2.80208 5.63534L1.90625 6.31242L2.3125 7.02075L3.34375 6.58325C3.49653 6.74297 3.66493 6.87666 3.84896 6.98429C4.03299 7.09193 4.23264 7.17353 4.44792 7.22909L4.58333 8.33325Z" fill="#5A20C3"/>
</g>
</svg>
